<svg version="1.1" id="Layer_1" xmlns="http://www.w3.org/2000/svg" xmlns:xlink="http://www.w3.org/1999/xlink" x="0px" y="0px"
	 width="100%" viewBox="0 0 550 550" enable-background="new 0 0 550 550" xml:space="preserve">
<path fill="#525252" opacity="1.000000" stroke="none" 
	d="
M249.000000,1.000002 
	C265.354218,1.000000 281.708466,1.000000 298.826477,1.234401 
	C300.819092,1.942013 302.010651,2.650128 303.282593,2.852224 
	C316.515411,4.954763 329.761200,6.975939 343.209595,9.078157 
	C343.970245,9.046329 344.524628,8.956035 345.406799,8.886232 
	C346.166229,8.974370 346.597839,9.042015 347.202148,9.353163 
	C348.957672,9.999210 350.540588,10.401754 352.490662,10.840990 
	C354.251953,11.303595 355.646057,11.729508 357.253479,12.407858 
	C360.993958,13.744215 364.521149,14.828136 368.375916,15.929348 
	C369.476685,16.325586 370.249847,16.704533 371.148438,17.245934 
	C371.886017,17.546413 372.498077,17.684439 373.463745,17.877119 
	C375.554871,18.658108 377.292358,19.384441 379.257629,20.357876 
	C380.734955,21.050779 381.984497,21.496582 383.543701,21.958208 
	C384.577698,22.348484 385.302063,22.722937 386.154205,23.255318 
	C386.889801,23.552206 387.497650,23.691166 388.424774,23.889967 
	C389.511169,24.335369 390.278290,24.720930 391.248474,25.241058 
	C391.735565,25.537592 391.994629,25.732660 392.437622,25.970230 
	C392.646484,25.979630 393.045135,26.105797 393.248535,26.240683 
	C393.736633,26.537409 393.996674,26.732199 394.442749,26.972614 
	C394.653473,26.985289 395.052734,27.122761 395.253845,27.251522 
	C395.733887,27.539696 395.983429,27.736326 396.419830,27.979555 
	C396.636017,27.988932 397.049530,28.116549 397.252563,28.248482 
	C397.739166,28.539526 397.996338,28.733665 398.435486,28.970734 
	C398.643860,28.978628 399.041779,29.103674 399.176575,29.247505 
	C399.492676,29.581749 399.679047,29.767044 400.073730,30.239124 
	C408.159241,34.647419 416.283661,38.367405 423.855133,42.992596 
	C431.301941,47.541641 438.657501,52.470211 445.218597,58.189548 
	C457.617035,68.997231 470.144623,79.822418 481.248871,91.899643 
	C491.138306,102.655670 499.177063,115.113235 508.187744,126.999687 
	C508.522034,127.440529 508.705536,127.698456 509.052948,128.253479 
	C510.483490,130.646011 511.754425,132.738342 513.183838,134.998932 
	C513.521240,135.418045 513.692139,135.674286 513.927490,136.154602 
	C514.000000,136.373276 514.038696,136.832428 514.135742,137.143234 
	C514.868896,138.311768 515.505066,139.169495 516.073242,140.045868 
	C516.005249,140.064529 515.967834,139.928467 516.125732,140.088257 
	C516.473755,140.479599 516.665344,140.709885 516.927551,141.150543 
	C516.996643,141.362213 517.031738,141.806152 517.188843,141.983704 
	C517.523254,142.422729 517.700439,142.684341 517.941895,143.156326 
	C518.006348,143.366547 518.027832,143.805786 518.185425,143.979248 
	C518.518616,144.411102 518.689575,144.672485 519.035156,145.247040 
	C519.943237,146.649750 520.849915,147.663742 521.372742,148.847275 
	C525.624634,158.472366 530.117371,168.007095 533.940857,177.801956 
	C541.671814,197.606873 547.476685,217.933929 549.127625,239.274567 
	C549.201233,240.225632 550.351318,241.093430 551.000000,242.000000 
	C551.000000,264.687561 551.000000,287.375122 550.586670,310.539001 
	C549.789185,312.362244 549.309265,313.690063 549.035767,315.059143 
	C546.718750,326.658020 545.165649,338.470154 541.952209,349.812866 
	C538.469543,362.105835 533.989380,374.194855 528.947021,385.944885 
	C524.057068,397.339752 518.723755,408.710663 512.121704,419.168213 
	C500.149597,438.131927 487.110443,456.480774 470.067566,471.383148 
	C456.938721,482.863037 443.948212,494.661346 429.787079,504.763275 
	C407.948853,520.341797 383.456635,531.305237 358.027893,539.517822 
	C343.867401,544.091248 328.808807,545.874146 314.177002,549.017334 
	C313.029022,549.263916 312.054932,550.320068 311.000000,551.000000 
	C287.645782,551.000000 264.291534,551.000000 240.473938,550.582520 
	C237.003418,549.704224 233.922363,549.519287 231.001282,548.737000 
	C214.131744,544.219788 197.045135,540.320679 180.515457,534.772156 
	C156.024521,526.551331 133.475708,514.358521 112.874619,498.561951 
	C98.659218,487.661774 85.252724,476.053253 73.013199,462.879608 
	C58.318748,447.063751 45.711174,429.888458 35.069466,411.206879 
	C24.492826,392.639496 15.754519,373.232605 10.724508,352.406464 
	C7.639821,339.634705 5.531918,326.628052 2.881311,313.748322 
	C2.674958,312.745605 1.646411,311.912140 1.000000,311.000000 
	C1.000000,310.555542 1.000000,310.111115 1.000500,308.942902 
	C3.028219,306.479034 3.404004,304.739258 1.000000,303.000000 
	C1.000000,290.645782 1.000000,278.291534 1.142881,265.146240 
	C1.190508,262.570099 1.095254,260.785065 1.000000,259.000000 
	C1.000000,257.611115 1.000000,256.222229 1.143202,254.063141 
	C1.797115,247.481720 2.307826,241.670456 2.861202,235.535660 
	C2.982225,234.785187 3.060583,234.358276 3.305205,233.648712 
	C3.702753,231.271301 3.934036,229.176544 4.100079,226.668243 
	C7.817654,205.055023 13.950805,184.580444 23.103870,164.855652 
	C23.458006,164.115677 23.644665,163.505875 23.892647,162.557434 
	C24.668268,160.799042 25.382570,159.379272 26.238083,157.751831 
	C26.566992,157.267197 26.754690,156.990250 26.964008,156.382751 
	C27.686672,154.688766 28.387714,153.325333 29.226030,151.754059 
	C29.526922,151.255112 29.722038,150.986908 29.959595,150.540131 
	C29.970535,150.338623 30.100945,149.956665 30.235870,149.752914 
	C30.534319,149.264862 30.731186,149.005890 30.970261,148.563477 
	C30.979126,148.354691 31.103809,147.955780 31.239309,147.751678 
	C31.536659,147.261520 31.731146,146.999680 32.063103,146.515350 
	C32.481396,145.835999 32.794849,145.403366 33.344082,144.761658 
	C34.034531,143.626572 34.489201,142.700577 34.955967,141.565918 
	C34.968067,141.357285 35.095482,140.959183 35.232670,140.754120 
	C35.533607,140.261505 35.729176,139.997528 35.971458,139.489182 
	C36.276817,138.802979 36.567291,138.384705 37.109459,137.758148 
	C37.888596,136.623413 38.416039,135.696960 38.959862,134.501221 
	C39.266766,133.809067 39.557301,133.386215 40.108345,132.764374 
	C40.894630,131.637817 41.420399,130.710251 41.975769,129.462296 
	C42.709152,128.083817 43.412937,127.025703 44.346291,125.790863 
	C45.032043,124.996117 45.488235,124.378113 45.965492,123.437973 
	C46.937370,121.730751 47.888184,120.345673 49.105583,118.763641 
	C49.892929,117.633522 50.413685,116.700356 51.028786,115.582367 
	C51.296715,115.165565 51.524601,115.016716 52.068428,114.758652 
	C52.873638,113.656670 53.417210,112.747047 54.037010,111.635582 
	C54.280949,111.180336 54.512959,111.019936 55.069763,110.754112 
	C55.869968,109.636581 56.409683,108.717499 57.026443,107.601013 
	C57.271503,107.155289 57.502930,107.003922 58.115753,106.821884 
	C59.275192,105.411461 60.116650,104.128639 60.972790,102.909714 
	C60.987473,102.973610 60.859688,103.002960 61.123188,102.844711 
	C61.926594,102.095901 62.466499,101.505356 62.997849,100.978683 
	C62.989296,101.042564 62.861542,101.025459 63.107048,100.813812 
	C63.889347,99.683266 64.426140,98.764366 65.106018,97.557503 
	C67.093750,95.495804 68.938400,93.722069 71.039940,91.774376 
	C71.848495,90.996155 72.400154,90.391891 73.088570,89.486000 
	C74.324806,87.752052 75.230217,86.102074 76.554214,84.921555 
	C88.050011,74.671600 99.473778,64.331200 111.250725,54.411560 
	C115.280502,51.017311 120.251686,48.740746 125.052681,45.780258 
	C125.877464,45.001175 126.442329,44.395367 127.043785,43.867599 
	C127.080376,43.945637 126.924309,44.018829 127.100754,43.866463 
	C127.519966,43.519470 127.748817,43.309673 128.162766,43.024933 
	C128.361771,42.965160 128.776871,42.945198 129.095520,42.865326 
	C130.279236,42.150875 131.144287,41.516300 132.000702,40.936989 
	C131.992050,40.992252 131.881516,40.974922 132.190781,40.872040 
	C133.338638,40.121353 134.177246,39.473549 135.045013,38.897476 
	C135.074203,38.969204 134.930756,39.027584 135.094467,38.870911 
	C135.491608,38.522243 135.721054,38.325603 136.160370,38.056931 
	C136.374268,37.989548 136.821671,37.958340 137.122025,37.877419 
	C138.269470,37.243515 139.116547,36.690533 140.264130,35.955803 
	C155.173157,26.930468 170.738907,20.213095 187.127640,14.919179 
	C187.866272,14.678579 188.413147,14.416625 189.258194,14.071544 
	C189.968536,13.975843 190.380676,13.963270 191.203506,13.942757 
	C194.398865,12.982837 197.183533,12.030856 200.153229,11.016211 
	C200.338226,10.953546 200.728104,10.928698 201.101242,10.944782 
	C202.972122,10.347756 204.469849,9.734647 206.286377,9.046457 
	C207.040283,8.934759 207.475403,8.898141 208.203613,8.947133 
	C210.321335,8.391706 212.145966,7.750667 214.267303,7.045509 
	C214.968430,6.970276 215.372818,6.959161 216.116333,6.899033 
	C216.679138,6.803746 216.902832,6.757473 217.123245,6.767562 
	C217.119980,6.823925 217.007248,6.817369 217.191650,6.861351 
	C217.750427,6.877693 218.124832,6.850051 218.475922,6.845527 
	C218.452621,6.868644 218.414673,6.815099 218.874023,6.847944 
	C227.977203,5.630510 236.631622,4.445951 245.253754,3.060563 
	C246.578659,2.847682 247.754974,1.709987 249.000000,1.000002 
M24.577942,261.564209 
	C24.297453,261.422272 23.822918,261.106689 23.768732,261.167267 
	C23.471497,261.499451 23.078051,261.923187 23.076824,262.316589 
	C23.046545,272.038055 23.032597,281.760010 23.143850,291.480408 
	C23.150200,292.035217 24.246086,292.577606 24.889338,294.018280 
	C24.822456,296.348419 24.326622,298.761658 24.759233,300.995026 
	C27.312784,314.177948 30.036421,327.328613 32.790245,340.471863 
	C36.488876,358.124390 43.692593,374.480408 51.659702,390.518890 
	C65.045242,417.465088 83.178185,440.924438 105.322624,461.143707 
	C114.867081,469.858459 125.031319,478.134033 135.868256,485.131226 
	C148.571945,493.333801 161.983139,500.638367 175.694626,507.029938 
	C191.178574,514.247742 207.567535,519.245789 224.486115,522.247131 
	C230.927017,523.389648 237.263687,525.512878 243.736725,525.994385 
	C254.978516,526.830505 266.295563,527.114746 277.569611,526.930176 
	C289.307404,526.738037 301.098114,526.273560 312.740692,524.882324 
	C321.993134,523.776672 331.112579,521.316284 340.188293,519.046387 
	C348.310883,517.014954 356.546631,515.053955 364.285431,511.948029 
	C381.442719,505.062073 398.019745,497.032959 413.487122,486.640106 
	C427.618958,477.144623 441.076233,466.899689 452.995026,454.823639 
	C460.718872,446.997833 468.115784,438.674408 474.503357,429.746948 
	C483.440155,417.256622 491.816528,404.291321 499.442230,390.962524 
	C504.683868,381.800751 508.829895,371.886505 512.392456,361.924805 
	C516.013306,351.800049 518.480103,341.245880 521.138855,330.799957 
	C522.755554,324.448181 523.871582,317.962067 525.038208,311.504791 
	C525.917725,306.636963 527.201233,301.709076 527.128845,296.825317 
	C526.812805,275.486206 528.605835,254.030594 524.097229,232.884842 
	C522.931396,227.416885 522.290283,221.805801 520.722961,216.461411 
	C517.744812,206.306305 514.684937,196.137360 510.887085,186.271271 
	C507.183228,176.649460 503.070099,167.096008 498.138428,158.057236 
	C490.986694,144.949661 483.648407,131.886795 473.476105,120.692703 
	C464.340973,110.639954 456.117096,99.677872 446.353302,90.301987 
	C437.697388,81.989983 427.887604,74.683327 417.839722,68.068199 
	C405.993469,60.269093 393.748352,52.830750 380.940033,46.799274 
	C364.476990,39.046795 347.175873,33.139256 329.164032,29.819063 
	C318.956116,27.937389 308.669403,24.897654 298.447083,25.009996 
	C277.314087,25.242247 255.995682,22.405659 235.030472,27.659016 
	C220.981567,31.179319 206.567764,33.461319 192.791794,37.803108 
	C170.621353,44.790577 150.246048,55.916939 131.221558,69.156197 
	C110.387672,83.654617 92.350113,101.234734 76.756783,121.372139 
	C65.200401,136.296173 55.368637,152.337646 47.502552,169.308929 
	C41.221607,182.860260 37.172588,197.500076 32.762512,211.850235 
	C27.769545,228.097076 24.297548,244.688126 24.577942,261.564209 
z"/>
<path fill="#000000" opacity="1.000000" stroke="none" 
	d="
M311.468658,551.000000 
	C312.054932,550.320068 313.029022,549.263916 314.177002,549.017334 
	C328.808807,545.874146 343.867401,544.091248 358.027893,539.517822 
	C383.456635,531.305237 407.948853,520.341797 429.787079,504.763275 
	C443.948212,494.661346 456.938721,482.863037 470.067566,471.383148 
	C487.110443,456.480774 500.149597,438.131927 512.121704,419.168213 
	C518.723755,408.710663 524.057068,397.339752 528.947021,385.944885 
	C533.989380,374.194855 538.469543,362.105835 541.952209,349.812866 
	C545.165649,338.470154 546.718750,326.658020 549.035767,315.059143 
	C549.309265,313.690063 549.789185,312.362244 550.586670,311.007629 
	C551.000000,390.927032 551.000000,470.854095 551.000000,551.000000 
	C471.312561,551.000000 391.624939,551.000000 311.468658,551.000000 
z"/>
<path fill="#000000" opacity="1.000000" stroke="none" 
	d="
M399.041779,29.103674 
	C399.041779,29.103674 398.643860,28.978628 398.291382,28.758987 
	C397.642456,28.398413 397.345978,28.257479 397.049530,28.116547 
	C397.049530,28.116549 396.636017,27.988932 396.279785,27.770077 
	C395.633270,27.408403 395.342987,27.265585 395.052734,27.122763 
	C395.052734,27.122761 394.653473,26.985289 394.298340,26.758247 
	C393.643860,26.389397 393.344513,26.247591 393.045135,26.105791 
	C393.045135,26.105797 392.646484,25.979630 392.293915,25.755997 
	C391.642700,25.390406 391.344025,25.248446 391.045380,25.106487 
	C390.278290,24.720930 389.511169,24.335369 388.246155,23.652966 
	C387.174316,23.269882 386.600372,23.183641 386.026428,23.097395 
	C385.302063,22.722937 384.577698,22.348484 383.327942,21.693810 
	C381.545013,20.979313 380.287445,20.545040 379.029877,20.110771 
	C377.292358,19.384441 375.554871,18.658108 373.281403,17.642872 
	C372.171295,17.263803 371.597137,17.173637 371.022980,17.083473 
	C370.249847,16.704533 369.476685,16.325586 368.097565,15.699186 
	C364.007782,14.352962 360.523956,13.254191 357.040161,12.155421 
	C355.646057,11.729508 354.251953,11.303595 352.260681,10.580366 
	C350.118805,9.891920 348.574158,9.500789 347.029480,9.109658 
	C346.597839,9.042015 346.166229,8.974370 345.212097,8.665388 
	C344.121643,8.346472 343.553680,8.268891 342.598541,8.097936 
	C333.806122,6.321206 325.390839,4.684825 317.007843,2.896976 
	C315.919861,2.664946 314.998535,1.651487 314.000000,0.999995 
	C392.927643,1.000000 471.855316,1.000000 551.000000,1.000000 
	C551.000000,81.020767 551.000000,161.041718 551.000000,241.531342 
	C550.351318,241.093430 549.201233,240.225632 549.127625,239.274567 
	C547.476685,217.933929 541.671814,197.606873 533.940857,177.801956 
	C530.117371,168.007095 525.624634,158.472366 521.372742,148.847275 
	C520.849915,147.663742 519.943237,146.649750 518.994141,145.002472 
	C518.580383,144.169556 518.331726,143.955566 518.027832,143.805786 
	C518.027832,143.805786 518.006348,143.366547 517.901123,142.907623 
	C517.541199,142.234512 517.286438,142.020340 517.031738,141.806152 
	C517.031738,141.806152 516.996643,141.362213 516.883789,140.909317 
	C516.575684,140.170349 516.307922,139.994370 515.967834,139.928467 
	C515.967834,139.928467 516.005249,140.064529 515.997559,139.715820 
	C515.339478,138.522232 514.689087,137.677322 514.038696,136.832428 
	C514.038696,136.832428 514.000000,136.373276 513.883667,135.914001 
	C513.576233,135.179855 513.328979,134.971832 513.025391,134.830658 
	C511.754425,132.738342 510.483490,130.646011 509.014038,128.001984 
	C508.554565,127.240158 508.293549,127.030022 508.032562,126.819885 
	C499.177063,115.113235 491.138306,102.655670 481.248871,91.899643 
	C470.144623,79.822418 457.617035,68.997231 445.218597,58.189548 
	C438.657501,52.470211 431.301941,47.541641 423.855133,42.992596 
	C416.283661,38.367405 408.159241,34.647419 400.051819,30.009094 
	C399.653473,29.178425 399.391815,29.050594 399.041779,29.103674 
z"/>
<path fill="#000000" opacity="1.000000" stroke="none" 
	d="
M54.809273,110.952553 
	C54.512959,111.019936 54.280949,111.180336 53.777359,111.825531 
	C52.896584,113.128540 52.351685,114.039772 51.806786,114.951004 
	C51.524601,115.016716 51.296715,115.165565 50.736259,115.737793 
	C49.845924,117.038887 49.342461,117.999741 48.838997,118.960594 
	C47.888184,120.345673 46.937370,121.730751 45.726456,123.610031 
	C45.016476,124.725357 44.566601,125.346481 44.116726,125.967598 
	C43.412937,127.025703 42.709152,128.083817 41.692093,129.644287 
	C40.868488,131.085571 40.358162,132.024460 39.847836,132.963364 
	C39.557301,133.386215 39.266766,133.809067 38.698578,134.694458 
	C37.899872,136.093491 37.378822,137.029968 36.857769,137.966446 
	C36.567291,138.384705 36.276817,138.802979 35.755562,139.636108 
	C35.381683,140.353699 35.238583,140.656448 35.095482,140.959183 
	C35.095482,140.959183 34.968067,141.357285 34.679901,141.748474 
	C33.963924,143.083374 33.536118,144.027054 33.108307,144.970749 
	C32.794849,145.403366 32.481396,145.835999 31.848480,146.661087 
	C31.387287,147.354294 31.245550,147.655045 31.103811,147.955780 
	C31.103809,147.955780 30.979126,148.354691 30.755806,148.707581 
	C30.388638,149.359207 30.244791,149.657928 30.100945,149.956665 
	C30.100945,149.956665 29.970535,150.338623 29.744377,150.691559 
	C29.375067,151.350281 29.231915,151.656082 29.088760,151.961884 
	C28.387714,153.325333 27.686672,154.688766 26.747105,156.538116 
	C26.371346,157.335861 26.234110,157.647675 26.096872,157.959503 
	C25.382570,159.379272 24.668268,160.799042 23.654953,162.739288 
	C23.216093,163.835114 23.076246,164.410477 22.936398,164.985840 
	C13.950805,184.580444 7.817654,205.055023 4.033663,227.051132 
	C3.734638,229.875504 3.436789,231.903427 3.138940,233.931351 
	C3.060583,234.358276 2.982225,234.785187 2.514042,235.713135 
	C1.749478,236.142776 1.374739,236.071396 1.000000,236.000000 
	C1.000000,157.739151 1.000000,79.478317 1.000000,1.000000 
	C80.020760,1.000000 159.041718,1.000000 238.610382,1.410912 
	C238.003036,2.201769 236.869400,2.675090 235.689285,2.945829 
	C229.937897,4.265294 224.174088,5.530619 218.414673,6.815099 
	C218.414673,6.815099 218.452621,6.868644 218.103027,6.634157 
	C217.504684,6.538903 217.255966,6.678135 217.007248,6.817369 
	C217.007248,6.817369 217.119980,6.823925 217.030884,6.533666 
	C216.553604,6.478285 216.165405,6.713164 215.777222,6.948045 
	C215.372818,6.959161 214.968430,6.970276 213.898193,7.005465 
	C211.458405,7.640199 209.684464,8.250859 207.910522,8.861521 
	C207.475403,8.898141 207.040283,8.934759 205.918671,9.011671 
	C203.730820,9.677543 202.229462,10.303121 200.728104,10.928698 
	C200.728104,10.928698 200.338226,10.953546 199.763885,10.992270 
	C196.390640,12.004226 193.591736,12.977460 190.792831,13.950695 
	C190.380676,13.963270 189.968536,13.975843 188.970215,14.060738 
	C187.901337,14.387980 187.418594,14.642902 186.935867,14.897825 
	C170.738907,20.213095 155.173157,26.930468 139.948181,35.968102 
	C138.495056,36.760876 137.658356,37.359608 136.821671,37.958344 
	C136.821671,37.958340 136.374268,37.989548 135.915894,38.100548 
	C135.164352,38.407661 134.988770,38.679672 134.930756,39.027584 
	C134.930756,39.027584 135.074203,38.969204 134.710144,38.964340 
	C133.524567,39.631290 132.703033,40.303104 131.881516,40.974922 
	C131.881516,40.974922 131.992050,40.992252 131.669281,41.003815 
	C130.489960,41.658649 129.633423,42.301926 128.776871,42.945198 
	C128.776871,42.945198 128.361771,42.965160 127.907600,43.064827 
	C127.277061,43.449276 127.100685,43.734055 126.924316,44.018829 
	C126.924309,44.018829 127.080376,43.945637 126.692749,43.949623 
	C125.800995,44.620247 125.296883,45.286892 124.792763,45.953533 
	C120.251686,48.740746 115.280502,51.017311 111.250725,54.411560 
	C99.473778,64.331200 88.050011,74.671600 76.554214,84.921555 
	C75.230217,86.102074 74.324806,87.752052 72.763351,89.583412 
	C71.795265,90.637741 71.289154,91.293037 70.783051,91.948334 
	C68.938400,93.722069 67.093750,95.495804 64.844795,97.748825 
	C63.914177,99.160568 63.387856,100.093010 62.861542,101.025459 
	C62.861542,101.025459 62.989296,101.042564 62.711605,101.088531 
	C61.909172,101.757309 61.384426,102.380135 60.859688,103.002960 
	C60.859688,103.002960 60.987473,102.973610 60.689857,103.100098 
	C59.527416,104.467552 58.662590,105.708527 57.797768,106.949501 
	C57.502930,107.003922 57.271503,107.155289 56.755806,107.785507 
	C55.875179,109.095787 55.342228,110.024170 54.809273,110.952553 
z"/>
<path fill="#000000" opacity="1.000000" stroke="none" 
	d="
M1.000000,311.468658 
	C1.646411,311.912140 2.674958,312.745605 2.881311,313.748322 
	C5.531918,326.628052 7.639821,339.634705 10.724508,352.406464 
	C15.754519,373.232605 24.492826,392.639496 35.069466,411.206879 
	C45.711174,429.888458 58.318748,447.063751 73.013199,462.879608 
	C85.252724,476.053253 98.659218,487.661774 112.874619,498.561951 
	C133.475708,514.358521 156.024521,526.551331 180.515457,534.772156 
	C197.045135,540.320679 214.131744,544.219788 231.001282,548.737000 
	C233.922363,549.519287 237.003418,549.704224 240.005280,550.582520 
	C160.406143,551.000000 80.812286,551.000000 1.000000,551.000000 
	C1.000000,471.312561 1.000000,391.624939 1.000000,311.468658 
z"/>
<path fill="#6B6B6B" opacity="1.000000" stroke="none" 
	d="
M313.533875,0.999995 
	C314.998535,1.651487 315.919861,2.664946 317.007843,2.896976 
	C325.390839,4.684825 333.806122,6.321206 342.601593,8.305061 
	C342.991791,8.605561 343.003387,9.019692 343.003387,9.019691 
	C329.761200,6.975939 316.515411,4.954763 303.282593,2.852224 
	C302.010651,2.650128 300.819092,1.942013 299.295105,1.234401 
	C303.689240,1.000000 308.378510,1.000000 313.533875,0.999995 
z"/>
<path fill="#6B6B6B" opacity="1.000000" stroke="none" 
	d="
M218.874023,6.847945 
	C224.174088,5.530619 229.937897,4.265294 235.689285,2.945829 
	C236.869400,2.675090 238.003036,2.201769 239.079041,1.410912 
	C242.030594,1.000000 245.061188,1.000000 248.545898,1.000002 
	C247.754974,1.709987 246.578659,2.847682 245.253754,3.060563 
	C236.631622,4.445951 227.977203,5.630510 218.874023,6.847945 
z"/>
<path fill="#6B6B6B" opacity="1.000000" stroke="none" 
	d="
M1.000000,236.467941 
	C1.374739,236.071396 1.749478,236.142776 2.471377,236.036682 
	C2.307826,241.670456 1.797115,247.481720 1.143202,253.646484 
	C1.000000,248.311966 1.000000,242.623917 1.000000,236.467941 
z"/>
<path fill="#808080" opacity="1.000000" stroke="none" 
	d="
M1.000000,303.428467 
	C3.404004,304.739258 3.028219,306.479034 1.000500,308.609558 
	C1.000000,307.285645 1.000000,305.571289 1.000000,303.428467 
z"/>
<path fill="#6B6B6B" opacity="1.000000" stroke="none" 
	d="
M1.000000,259.428467 
	C1.095254,260.785065 1.190508,262.570099 1.142881,264.677582 
	C1.000000,263.285645 1.000000,261.571289 1.000000,259.428467 
z"/>
<path fill="#000000" opacity="1.000000" stroke="none" 
	d="
M24.824091,261.860260 
	C24.297548,244.688126 27.769545,228.097076 32.762512,211.850235 
	C37.172588,197.500076 41.221607,182.860260 47.502552,169.308929 
	C55.368637,152.337646 65.200401,136.296173 76.756783,121.372139 
	C92.350113,101.234734 110.387672,83.654617 131.221558,69.156197 
	C150.246048,55.916939 170.621353,44.790577 192.791794,37.803108 
	C206.567764,33.461319 220.981567,31.179319 235.030472,27.659016 
	C255.995682,22.405659 277.314087,25.242247 298.447083,25.009996 
	C308.669403,24.897654 318.956116,27.937389 329.164032,29.819063 
	C347.175873,33.139256 364.476990,39.046795 380.940033,46.799274 
	C393.748352,52.830750 405.993469,60.269093 417.839722,68.068199 
	C427.887604,74.683327 437.697388,81.989983 446.353302,90.301987 
	C456.117096,99.677872 464.340973,110.639954 473.476105,120.692703 
	C483.648407,131.886795 490.986694,144.949661 498.138428,158.057236 
	C503.070099,167.096008 507.183228,176.649460 510.887085,186.271271 
	C514.684937,196.137360 517.744812,206.306305 520.722961,216.461411 
	C522.290283,221.805801 522.931396,227.416885 524.097229,232.884842 
	C528.605835,254.030594 526.812805,275.486206 527.128845,296.825317 
	C527.201233,301.709076 525.917725,306.636963 525.038208,311.504791 
	C523.871582,317.962067 522.755554,324.448181 521.138855,330.799957 
	C518.480103,341.245880 516.013306,351.800049 512.392456,361.924805 
	C508.829895,371.886505 504.683868,381.800751 499.442230,390.962524 
	C491.816528,404.291321 483.440155,417.256622 474.503357,429.746948 
	C468.115784,438.674408 460.718872,446.997833 452.995026,454.823639 
	C441.076233,466.899689 427.618958,477.144623 413.487122,486.640106 
	C398.019745,497.032959 381.442719,505.062073 364.285431,511.948029 
	C356.546631,515.053955 348.310883,517.014954 340.188293,519.046387 
	C331.112579,521.316284 321.993134,523.776672 312.740692,524.882324 
	C301.098114,526.273560 289.307404,526.738037 277.569611,526.930176 
	C266.295563,527.114746 254.978516,526.830505 243.736725,525.994385 
	C237.263687,525.512878 230.927017,523.389648 224.486115,522.247131 
	C207.567535,519.245789 191.178574,514.247742 175.694626,507.029938 
	C161.983139,500.638367 148.571945,493.333801 135.868256,485.131226 
	C125.031319,478.134033 114.867081,469.858459 105.322624,461.143707 
	C83.178185,440.924438 65.045242,417.465088 51.659702,390.518890 
	C43.692593,374.480408 36.488876,358.124390 32.790245,340.471863 
	C30.036421,327.328613 27.312784,314.177948 24.759233,300.995026 
	C24.326622,298.761658 24.822456,296.348419 24.921423,293.098083 
	C24.910370,282.072021 24.867229,271.966156 24.824091,261.860260 
M400.916840,170.561798 
	C400.718445,170.259613 400.439087,170.122833 399.294525,170.020752 
	C398.504089,170.070740 397.713623,170.120712 395.999115,170.085785 
	C351.680481,170.051361 307.361847,169.986496 263.043213,169.992355 
	C228.722977,169.996902 194.402740,170.089951 159.265305,170.025330 
	C151.534286,170.137024 146.074509,175.844147 146.068024,184.106827 
	C146.022369,242.266968 146.003113,300.427155 146.027832,358.587341 
	C146.032150,368.756805 151.248779,373.891235 161.286194,373.894867 
	C203.281570,373.910004 245.276962,373.925323 287.272339,373.914001 
	C323.601257,373.904236 359.930176,373.847595 396.259094,373.841736 
	C401.239563,373.840942 405.845459,372.533661 407.879761,367.792145 
	C409.593750,363.797150 410.844910,359.254364 410.877960,354.943176 
	C411.121826,323.115662 411.005615,291.285400 411.009216,259.456024 
	C411.011902,235.459412 411.071686,211.462662 411.007446,187.466232 
	C410.983917,178.672470 407.491547,173.048111 400.916840,170.561798 
z"/>
<path fill="#393939" opacity="1.000000" stroke="none" 
	d="
M24.701015,261.712219 
	C24.867229,271.966156 24.910370,282.072021 24.894201,292.651855 
	C24.246086,292.577606 23.150200,292.035217 23.143850,291.480408 
	C23.032597,281.760010 23.046545,272.038055 23.076824,262.316589 
	C23.078051,261.923187 23.471497,261.499451 23.768732,261.167267 
	C23.822918,261.106689 24.297453,261.422272 24.701015,261.712219 
z"/>
<path fill="#656565" opacity="1.000000" stroke="none" 
	d="
M357.253479,12.407858 
	C360.523956,13.254191 364.007782,14.352962 367.769958,15.681894 
	C364.521149,14.828136 360.993958,13.744215 357.253479,12.407858 
z"/>
<path fill="#656565" opacity="1.000000" stroke="none" 
	d="
M191.203506,13.942756 
	C193.591736,12.977460 196.390640,12.004226 199.578888,11.054935 
	C197.183533,12.030856 194.398865,12.982837 191.203506,13.942756 
z"/>
<path fill="#656565" opacity="1.000000" stroke="none" 
	d="
M208.203613,8.947132 
	C209.684464,8.250859 211.458405,7.640199 213.601471,7.069583 
	C212.145966,7.750667 210.321335,8.391706 208.203613,8.947132 
z"/>
<path fill="#6B6B6B" opacity="1.000000" stroke="none" 
	d="
M3.305204,233.648712 
	C3.436789,231.903427 3.734638,229.875504 4.098905,227.464691 
	C3.934036,229.176544 3.702753,231.271301 3.305204,233.648712 
z"/>
<path fill="#656565" opacity="1.000000" stroke="none" 
	d="
M347.202148,9.353161 
	C348.574158,9.500789 350.118805,9.891920 351.893494,10.543674 
	C350.540588,10.401754 348.957672,9.999210 347.202148,9.353161 
z"/>
<path fill="#656565" opacity="1.000000" stroke="none" 
	d="
M58.115753,106.821884 
	C58.662590,105.708527 59.527416,104.467552 60.675175,103.036209 
	C60.116650,104.128639 59.275192,105.411461 58.115753,106.821884 
z"/>
<path fill="#656565" opacity="1.000000" stroke="none" 
	d="
M201.101242,10.944782 
	C202.229462,10.303121 203.730820,9.677543 205.599884,9.086752 
	C204.469849,9.734647 202.972122,10.347756 201.101242,10.944782 
z"/>
<path fill="#656565" opacity="1.000000" stroke="none" 
	d="
M379.257629,20.357872 
	C380.287445,20.545040 381.545013,20.979313 383.018311,21.677986 
	C381.984497,21.496582 380.734955,21.050779 379.257629,20.357872 
z"/>
<path fill="#656565" opacity="1.000000" stroke="none" 
	d="
M132.190781,40.872040 
	C132.703033,40.303104 133.524567,39.631290 134.680969,38.892609 
	C134.177246,39.473549 133.338638,40.121353 132.190781,40.872040 
z"/>
<path fill="#656565" opacity="1.000000" stroke="none" 
	d="
M137.122025,37.877419 
	C137.658356,37.359608 138.495056,36.760876 139.647690,36.149849 
	C139.116547,36.690533 138.269470,37.243515 137.122025,37.877419 
z"/>
<path fill="#656565" opacity="1.000000" stroke="none" 
	d="
M33.344086,144.761658 
	C33.536118,144.027054 33.963924,143.083374 34.667801,141.957123 
	C34.489201,142.700577 34.034531,143.626572 33.344086,144.761658 
z"/>
<path fill="#656565" opacity="1.000000" stroke="none" 
	d="
M49.105583,118.763641 
	C49.342461,117.999741 49.845924,117.038887 50.641914,115.922615 
	C50.413685,116.700356 49.892929,117.633522 49.105583,118.763641 
z"/>
<path fill="#656565" opacity="1.000000" stroke="none" 
	d="
M55.069763,110.754112 
	C55.342228,110.024170 55.875179,109.095787 56.678764,107.982910 
	C56.409683,108.717499 55.869968,109.636581 55.069763,110.754112 
z"/>
<path fill="#656565" opacity="1.000000" stroke="none" 
	d="
M52.068428,114.758652 
	C52.351685,114.039772 52.896584,113.128540 53.701130,112.027359 
	C53.417210,112.747047 52.873638,113.656670 52.068428,114.758652 
z"/>
<path fill="#656565" opacity="1.000000" stroke="none" 
	d="
M40.108345,132.764374 
	C40.358162,132.024460 40.868488,131.085571 41.662491,129.964661 
	C41.420399,130.710251 40.894630,131.637817 40.108345,132.764374 
z"/>
<path fill="#656565" opacity="1.000000" stroke="none" 
	d="
M63.107048,100.813812 
	C63.387856,100.093010 63.914177,99.160568 64.701706,98.036804 
	C64.426140,98.764366 63.889347,99.683266 63.107048,100.813812 
z"/>
<path fill="#656565" opacity="1.000000" stroke="none" 
	d="
M37.109463,137.758148 
	C37.378822,137.029968 37.899872,136.093491 38.682205,134.963760 
	C38.416039,135.696960 37.888596,136.623413 37.109463,137.758148 
z"/>
<path fill="#656565" opacity="1.000000" stroke="none" 
	d="
M514.135742,137.143219 
	C514.689087,137.677322 515.339478,138.522232 516.065552,139.697174 
	C515.505066,139.169495 514.868896,138.311768 514.135742,137.143219 
z"/>
<path fill="#656565" opacity="1.000000" stroke="none" 
	d="
M129.095520,42.865326 
	C129.633423,42.301926 130.489960,41.658649 131.677933,40.948547 
	C131.144287,41.516300 130.279236,42.150875 129.095520,42.865326 
z"/>
<path fill="#656565" opacity="1.000000" stroke="none" 
	d="
M343.209595,9.078157 
	C343.003387,9.019692 342.991791,8.605561 342.988739,8.398436 
	C343.553680,8.268891 344.121643,8.346472 344.884338,8.644897 
	C344.524628,8.956035 343.970245,9.046329 343.209595,9.078157 
z"/>
<path fill="#656565" opacity="1.000000" stroke="none" 
	d="
M125.052681,45.780258 
	C125.296883,45.286892 125.800995,44.620247 126.656158,43.871582 
	C126.442329,44.395367 125.877464,45.001175 125.052681,45.780258 
z"/>
<path fill="#656565" opacity="1.000000" stroke="none" 
	d="
M71.039932,91.774376 
	C71.289154,91.293037 71.795265,90.637741 72.626595,89.885040 
	C72.400154,90.391891 71.848495,90.996155 71.039932,91.774376 
z"/>
<path fill="#656565" opacity="1.000000" stroke="none" 
	d="
M386.154205,23.255325 
	C386.600372,23.183641 387.174316,23.269882 387.926880,23.593124 
	C387.497650,23.691166 386.889801,23.552206 386.154205,23.255325 
z"/>
<path fill="#656565" opacity="1.000000" stroke="none" 
	d="
M23.103872,164.855652 
	C23.076246,164.410477 23.216093,163.835114 23.593632,163.077911 
	C23.644665,163.505875 23.458006,164.115677 23.103872,164.855652 
z"/>
<path fill="#656565" opacity="1.000000" stroke="none" 
	d="
M371.148438,17.245930 
	C371.597137,17.173637 372.171295,17.263803 372.927795,17.588217 
	C372.498077,17.684439 371.886017,17.546413 371.148438,17.245930 
z"/>
<path fill="#656565" opacity="1.000000" stroke="none" 
	d="
M187.127640,14.919178 
	C187.418594,14.642902 187.901337,14.387980 188.672028,14.143864 
	C188.413147,14.416625 187.866272,14.678579 187.127640,14.919178 
z"/>
<path fill="#656565" opacity="1.000000" stroke="none" 
	d="
M44.346291,125.790863 
	C44.566601,125.346481 45.016476,124.725357 45.705387,123.932175 
	C45.488235,124.378113 45.032043,124.996117 44.346291,125.790863 
z"/>
<path fill="#656565" opacity="1.000000" stroke="none" 
	d="
M61.123184,102.844711 
	C61.384426,102.380135 61.909172,101.757309 62.720161,101.024651 
	C62.466499,101.505356 61.926594,102.095901 61.123184,102.844711 
z"/>
<path fill="#656565" opacity="1.000000" stroke="none" 
	d="
M217.191650,6.861351 
	C217.255966,6.678135 217.504684,6.538903 218.126312,6.611040 
	C218.124832,6.850051 217.750427,6.877693 217.191650,6.861351 
z"/>
<path fill="#656565" opacity="1.000000" stroke="none" 
	d="
M127.100754,43.866463 
	C127.100685,43.734055 127.277061,43.449276 127.708595,43.124599 
	C127.748817,43.309673 127.519966,43.519470 127.100754,43.866463 
z"/>
<path fill="#656565" opacity="1.000000" stroke="none" 
	d="
M216.116333,6.899032 
	C216.165405,6.713164 216.553604,6.478285 217.034149,6.477302 
	C216.902832,6.757473 216.679138,6.803746 216.116333,6.899032 
z"/>
<path fill="#656565" opacity="1.000000" stroke="none" 
	d="
M135.094467,38.870911 
	C134.988770,38.679672 135.164352,38.407661 135.701996,38.167931 
	C135.721054,38.325603 135.491608,38.522243 135.094467,38.870911 
z"/>
<path fill="#656565" opacity="1.000000" stroke="none" 
	d="
M26.238083,157.751831 
	C26.234110,157.647675 26.371346,157.335861 26.725485,156.868652 
	C26.754690,156.990250 26.566992,157.267197 26.238083,157.751831 
z"/>
<path fill="#656565" opacity="1.000000" stroke="none" 
	d="
M35.232674,140.754120 
	C35.238583,140.656448 35.381683,140.353699 35.740677,139.904053 
	C35.729176,139.997528 35.533607,140.261505 35.232674,140.754120 
z"/>
<path fill="#656565" opacity="1.000000" stroke="none" 
	d="
M516.125732,140.088257 
	C516.307922,139.994370 516.575684,140.170349 516.814697,140.697662 
	C516.665344,140.709885 516.473755,140.479599 516.125732,140.088257 
z"/>
<path fill="#656565" opacity="1.000000" stroke="none" 
	d="
M513.183838,134.998932 
	C513.328979,134.971832 513.576233,135.179855 513.811157,135.695328 
	C513.692139,135.674286 513.521240,135.418045 513.183838,134.998932 
z"/>
<path fill="#656565" opacity="1.000000" stroke="none" 
	d="
M517.188843,141.983704 
	C517.286438,142.020340 517.541199,142.234512 517.836670,142.697388 
	C517.700439,142.684341 517.523254,142.422729 517.188843,141.983704 
z"/>
<path fill="#656565" opacity="1.000000" stroke="none" 
	d="
M518.185425,143.979248 
	C518.331726,143.955566 518.580383,144.169556 518.814880,144.692307 
	C518.689575,144.672485 518.518616,144.411102 518.185425,143.979248 
z"/>
<path fill="#656565" opacity="1.000000" stroke="none" 
	d="
M31.239311,147.751678 
	C31.245550,147.655045 31.387287,147.354294 31.743645,146.907822 
	C31.731146,146.999680 31.536659,147.261520 31.239311,147.751678 
z"/>
<path fill="#656565" opacity="1.000000" stroke="none" 
	d="
M30.235870,149.752914 
	C30.244791,149.657928 30.388638,149.359207 30.746941,148.916367 
	C30.731186,149.005890 30.534319,149.264862 30.235870,149.752914 
z"/>
<path fill="#656565" opacity="1.000000" stroke="none" 
	d="
M29.226032,151.754059 
	C29.231915,151.656082 29.375067,151.350281 29.733437,150.893051 
	C29.722038,150.986908 29.526922,151.255112 29.226032,151.754059 
z"/>
<path fill="#656565" opacity="1.000000" stroke="none" 
	d="
M399.176575,29.247505 
	C399.391815,29.050594 399.653473,29.178425 399.848633,29.717190 
	C399.679047,29.767044 399.492676,29.581749 399.176575,29.247505 
z"/>
<path fill="#656565" opacity="1.000000" stroke="none" 
	d="
M397.252563,28.248482 
	C397.345978,28.257479 397.642456,28.398413 398.083008,28.751091 
	C397.996338,28.733665 397.739166,28.539526 397.252563,28.248482 
z"/>
<path fill="#656565" opacity="1.000000" stroke="none" 
	d="
M395.253845,27.251524 
	C395.342987,27.265585 395.633270,27.408403 396.063599,27.760700 
	C395.983429,27.736326 395.733887,27.539696 395.253845,27.251524 
z"/>
<path fill="#656565" opacity="1.000000" stroke="none" 
	d="
M508.187744,126.999695 
	C508.293549,127.030022 508.554565,127.240158 508.854462,127.701790 
	C508.705536,127.698456 508.522034,127.440529 508.187744,126.999695 
z"/>
<path fill="#656565" opacity="1.000000" stroke="none" 
	d="
M393.248535,26.240677 
	C393.344513,26.247591 393.643860,26.389397 394.087585,26.745573 
	C393.996674,26.732199 393.736633,26.537409 393.248535,26.240677 
z"/>
<path fill="#656565" opacity="1.000000" stroke="none" 
	d="
M391.248474,25.241056 
	C391.344025,25.248446 391.642700,25.390406 392.085052,25.746597 
	C391.994629,25.732660 391.735565,25.537592 391.248474,25.241056 
z"/>
<path fill="#525252" opacity="1.000000" stroke="none" 
	d="
M396.923187,170.170685 
	C397.713623,170.120712 398.504089,170.070740 399.877502,170.212387 
	C400.726654,170.558823 400.964142,170.749344 401.172943,170.975555 
	C407.491547,173.048111 410.983917,178.672470 411.007446,187.466232 
	C411.071686,211.462662 411.011902,235.459412 411.009216,259.456024 
	C411.005615,291.285400 411.121826,323.115662 410.877960,354.943176 
	C410.844910,359.254364 409.593750,363.797150 407.879761,367.792145 
	C405.845459,372.533661 401.239563,373.840942 396.259094,373.841736 
	C359.930176,373.847595 323.601257,373.904236 287.272339,373.914001 
	C245.276962,373.925323 203.281570,373.910004 161.286194,373.894867 
	C151.248779,373.891235 146.032150,368.756805 146.027832,358.587341 
	C146.003113,300.427155 146.022369,242.266968 146.068024,184.106827 
	C146.074509,175.844147 151.534286,170.137024 160.061035,170.203705 
	C163.334229,170.598114 165.811722,171.002991 168.289169,171.002731 
	C241.859177,170.994751 315.429199,170.954193 388.999176,170.874069 
	C391.640778,170.871201 394.281860,170.415390 396.923187,170.170685 
M161.476654,344.921112 
	C161.476654,344.921112 161.860580,344.925995 161.962875,345.827637 
	C162.098648,353.593811 162.098648,353.593811 169.654572,354.670898 
	C171.900085,355.096039 174.141708,355.864105 176.391769,355.889740 
	C189.373169,356.037659 202.356583,356.047882 215.339264,356.035431 
	C269.767090,355.983246 324.194916,355.921875 378.622528,355.770325 
	C380.407593,355.765350 382.189880,354.750641 384.876282,354.088745 
	C387.802277,353.944519 390.728302,353.800323 393.838104,353.647034 
	C393.969574,350.807343 394.076630,348.495209 394.340912,346.821167 
	C394.660400,348.260712 394.979889,349.700226 395.299377,351.139771 
	C396.023102,348.699066 396.023590,346.386200 396.023010,344.073334 
	C396.013306,305.669067 396.003571,267.264801 395.993713,228.860535 
	C395.991852,221.545456 396.090302,214.227676 395.893097,206.917862 
	C395.858337,205.628891 394.587158,204.373291 393.259949,203.326767 
	C385.731720,211.454651 378.125031,219.511566 370.693726,227.727097 
	C359.587769,240.005066 348.644592,252.430161 337.559418,264.727051 
	C326.059235,277.484375 314.453064,290.146118 302.930267,302.883148 
	C295.286804,311.332062 287.742065,319.870453 280.080353,328.302643 
	C277.772034,330.843079 275.564423,332.687775 272.580597,328.495331 
	C269.559021,324.249786 265.773376,320.544281 262.286133,316.634583 
	C253.298782,306.558594 244.236328,296.549072 235.304779,286.424011 
	C221.544556,270.825043 207.797028,255.213516 194.196564,239.475571 
	C189.586105,234.140518 185.437378,228.406448 180.825562,222.300323 
	C179.934845,221.506363 179.044128,220.712387 177.595673,219.843887 
	C177.408218,219.837708 177.220749,219.831543 176.733902,219.546707 
	C176.536880,219.358185 176.344208,219.165344 175.944504,218.372040 
	C175.315475,217.529953 174.686447,216.687866 173.869919,215.524857 
	C173.727798,215.320114 173.565948,215.132385 173.288391,214.392853 
	C173.217010,214.214310 173.145630,214.035751 172.813934,213.378540 
	C172.296616,212.879120 171.779312,212.379684 170.686508,211.546646 
	C169.485382,210.253586 168.284241,208.960526 166.862167,207.381683 
	C166.700760,207.200836 166.517502,207.045822 165.824554,206.685944 
	C165.546463,206.461960 165.268356,206.237976 164.871719,205.332138 
	C163.832199,204.259995 162.792679,203.187836 161.753159,202.115692 
	C161.179138,203.367096 160.493362,204.582489 160.073944,205.883713 
	C159.830399,206.639313 160.007401,207.532791 160.007416,208.364227 
	C160.008850,254.762863 160.009506,301.161499 160.023636,347.560120 
	C160.024078,349.006042 160.164932,350.451935 160.240326,351.897827 
	C160.524948,351.882294 160.809555,351.866760 161.094177,351.851227 
	C161.094177,349.529846 161.094177,347.208496 161.476654,344.921112 
M174.597122,191.330673 
	C175.671814,192.371170 176.825363,193.342407 177.809204,194.462708 
	C189.434921,207.701141 200.996796,220.995834 212.652222,234.208008 
	C226.748428,250.186920 240.933395,266.087524 255.048859,282.049500 
	C260.932709,288.703003 266.733063,295.430267 272.578156,302.118134 
	C274.746552,304.599152 276.597321,306.593323 279.375031,302.331482 
	C281.600739,298.916595 284.786224,296.126587 287.550079,293.063202 
	C303.542084,275.337860 319.480164,257.563446 335.546692,239.905930 
	C347.213135,227.084244 359.113007,214.474838 370.770477,201.645050 
	C374.030640,198.057037 376.800201,194.023224 380.098694,189.874893 
	C379.900543,186.462662 377.188293,188.060684 375.802399,188.058121 
	C310.310638,187.937317 244.818634,187.935303 179.326660,187.933182 
	C177.831360,187.933136 176.254486,187.840256 174.882095,188.294052 
	C174.354401,188.468521 174.292435,190.051483 174.597122,191.330673 
z"/>
<path fill="#656565" opacity="1.000000" stroke="none" 
	d="
M396.461151,170.128235 
	C394.281860,170.415390 391.640778,170.871201 388.999176,170.874069 
	C315.429199,170.954193 241.859177,170.994751 168.289169,171.002731 
	C165.811722,171.002991 163.334229,170.598114 160.469635,170.262878 
	C194.402740,170.089951 228.722977,169.996902 263.043213,169.992355 
	C307.361847,169.986496 351.680481,170.051361 396.461151,170.128235 
z"/>
<path fill="#656565" opacity="1.000000" stroke="none" 
	d="
M401.044891,170.768677 
	C400.964142,170.749344 400.726654,170.558823 400.269653,170.277740 
	C400.439087,170.122833 400.718445,170.259613 401.044891,170.768677 
z"/>
<path fill="#000000" opacity="1.000000" stroke="none" 
	d="
M177.033279,219.825363 
	C177.220749,219.831543 177.408218,219.837708 177.917786,220.206467 
	C179.185822,221.330948 180.131729,222.092850 181.077637,222.854736 
	C185.437378,228.406448 189.586105,234.140518 194.196564,239.475571 
	C207.797028,255.213516 221.544556,270.825043 235.304779,286.424011 
	C244.236328,296.549072 253.298782,306.558594 262.286133,316.634583 
	C265.773376,320.544281 269.559021,324.249786 272.580597,328.495331 
	C275.564423,332.687775 277.772034,330.843079 280.080353,328.302643 
	C287.742065,319.870453 295.286804,311.332062 302.930267,302.883148 
	C314.453064,290.146118 326.059235,277.484375 337.559418,264.727051 
	C348.644592,252.430161 359.587769,240.005066 370.693726,227.727097 
	C378.125031,219.511566 385.731720,211.454651 393.581940,203.672974 
	C393.967499,208.367432 394.031067,212.715698 394.050964,217.526489 
	C394.038391,235.964401 394.069550,253.939789 394.062073,272.273987 
	C394.049377,273.112610 394.075287,273.592377 394.066406,274.488464 
	C394.055084,276.574738 394.078583,278.244751 394.051453,280.352539 
	C394.034821,282.550781 394.068787,284.311218 394.068542,286.455261 
	C394.057007,287.864838 394.079620,288.890747 394.051086,290.386780 
	C394.042389,295.935944 394.084839,301.015015 394.095459,306.517517 
	C394.089569,308.920227 394.115540,310.899536 394.100525,313.246338 
	C394.086884,314.105408 394.114227,314.596924 394.121948,315.292389 
	C394.102356,315.496307 394.130768,315.905090 394.073608,316.335266 
	C394.053406,318.208466 394.090332,319.651520 394.095245,321.552643 
	C394.087189,326.637787 394.111176,331.264832 394.097717,336.356262 
	C394.101410,339.941437 394.142548,343.062256 394.183685,346.183075 
	C394.076630,348.495209 393.969574,350.807343 393.838104,353.647034 
	C390.728302,353.800323 387.802277,353.944519 383.960754,354.092224 
	C369.657776,354.083405 356.270325,354.068054 342.882904,354.059509 
	C311.416565,354.039398 279.950195,353.985992 248.483917,354.015656 
	C222.013748,354.040619 195.543686,354.163788 169.073578,354.243469 
	C162.098648,353.593811 162.098648,353.593811 161.966980,344.915710 
	C161.960022,303.361755 161.948975,262.719727 162.005325,221.609436 
	C162.075729,216.671494 162.159256,212.199860 162.051102,207.732880 
	C161.987900,205.122787 163.037445,204.922119 164.990265,206.013992 
	C165.268356,206.237976 165.546463,206.461960 166.096069,207.008789 
	C166.528366,207.609070 166.766876,207.721008 167.083099,207.667480 
	C168.284241,208.960526 169.485382,210.253586 170.973679,212.036377 
	C171.865326,212.969788 172.469788,213.413498 173.074249,213.857208 
	C173.145630,214.035751 173.217010,214.214310 173.324982,214.894409 
	C173.498230,215.693298 173.730194,215.843231 174.057434,215.845779 
	C174.686447,216.687866 175.315475,217.529953 176.075165,218.910629 
	C176.390259,219.775574 176.666077,219.900955 177.033279,219.825363 
z"/>
<path fill="#000000" opacity="1.000000" stroke="none" 
	d="
M379.794830,190.193909 
	C376.800201,194.023224 374.030640,198.057037 370.770477,201.645050 
	C359.113007,214.474838 347.213135,227.084244 335.546692,239.905930 
	C319.480164,257.563446 303.542084,275.337860 287.550079,293.063202 
	C284.786224,296.126587 281.600739,298.916595 279.375031,302.331482 
	C276.597321,306.593323 274.746552,304.599152 272.578156,302.118134 
	C266.733063,295.430267 260.932709,288.703003 255.048859,282.049500 
	C240.933395,266.087524 226.748428,250.186920 212.652222,234.208008 
	C200.996796,220.995834 189.434921,207.701141 177.809204,194.462708 
	C176.825363,193.342407 175.671814,192.371170 174.640381,190.910553 
	C182.486267,190.286438 190.288910,190.082428 198.552032,189.920135 
	C205.301056,189.931244 211.589584,189.900604 218.339355,189.925507 
	C221.891266,189.955658 224.981934,189.930298 228.534180,189.942764 
	C234.635788,189.955521 240.275864,189.930435 246.386093,189.950287 
	C251.606003,189.953262 256.355743,189.911301 261.565735,189.901581 
	C276.981598,189.914978 291.937286,189.896149 307.366760,189.920868 
	C331.825348,190.040909 355.810089,190.117416 379.794830,190.193909 
z"/>
<path fill="#6B6B6B" opacity="1.000000" stroke="none" 
	d="
M169.364075,354.457184 
	C195.543686,354.163788 222.013748,354.040619 248.483917,354.015656 
	C279.950195,353.985992 311.416565,354.039398 342.882904,354.059509 
	C356.270325,354.068054 369.657776,354.083405 383.509338,354.151184 
	C382.189880,354.750641 380.407593,355.765350 378.622528,355.770325 
	C324.194916,355.921875 269.767090,355.983246 215.339264,356.035431 
	C202.356583,356.047882 189.373169,356.037659 176.391769,355.889740 
	C174.141708,355.864105 171.900085,355.096039 169.364075,354.457184 
z"/>
<path fill="#373737" opacity="1.000000" stroke="none" 
	d="
M379.946777,190.034393 
	C355.810089,190.117416 331.825348,190.040909 306.985687,189.789139 
	C296.717987,189.416702 287.305267,189.080719 277.892365,189.074722 
	C272.296906,189.071167 266.701141,189.587021 261.105499,189.869339 
	C256.355743,189.911301 251.606003,189.953262 246.006393,189.809143 
	C239.461884,189.717026 233.767258,189.810974 228.072617,189.904938 
	C224.981934,189.930298 221.891266,189.955658 217.956329,189.806549 
	C210.771896,189.714203 204.431732,189.796310 198.091553,189.878418 
	C190.288910,190.082428 182.486267,190.286438 174.350952,190.741562 
	C174.292435,190.051483 174.354401,188.468521 174.882095,188.294052 
	C176.254486,187.840256 177.831360,187.933136 179.326660,187.933182 
	C244.818634,187.935303 310.310638,187.937317 375.802399,188.058121 
	C377.188293,188.060684 379.900543,186.462662 379.946777,190.034393 
z"/>
<path fill="#393939" opacity="1.000000" stroke="none" 
	d="
M394.127258,321.094574 
	C394.090332,319.651520 394.053406,318.208466 394.054504,316.234070 
	C394.075043,315.494995 394.091370,315.290253 394.141571,315.088470 
	C394.114227,314.596924 394.086884,314.105408 394.207275,312.915649 
	C394.279083,310.176331 394.203186,308.135193 394.127289,306.094086 
	C394.084839,301.015015 394.042389,295.935944 394.148193,290.118530 
	C394.231873,288.277344 394.167297,287.174500 394.102722,286.071625 
	C394.068787,284.311218 394.034821,282.550781 394.168549,280.037628 
	C394.257874,277.547302 394.179535,275.809753 394.101196,274.072174 
	C394.075287,273.592377 394.049377,273.112610 394.192261,271.890594 
	C394.556458,270.007446 394.918793,268.866974 394.922180,267.725494 
	C394.967865,252.293945 394.987183,236.862213 394.933502,221.430786 
	C394.928436,219.974213 394.387024,218.519516 394.094666,217.063950 
	C394.031067,212.715698 393.967499,208.367432 393.895447,203.560730 
	C394.587158,204.373291 395.858337,205.628891 395.893097,206.917862 
	C396.090302,214.227676 395.991852,221.545456 395.993713,228.860535 
	C396.003571,267.264801 396.013306,305.669067 396.023010,344.073334 
	C396.023590,346.386200 396.023102,348.699066 395.299377,351.139771 
	C394.979889,349.700226 394.660400,348.260712 394.262299,346.502136 
	C394.142548,343.062256 394.101410,339.941437 394.222961,335.976440 
	C394.299500,330.453064 394.213379,325.773804 394.127258,321.094574 
z"/>
<path fill="#393939" opacity="1.000000" stroke="none" 
	d="
M164.931000,205.673065 
	C163.037445,204.922119 161.987900,205.122787 162.051102,207.732880 
	C162.159256,212.199860 162.075729,216.671494 161.729065,221.918579 
	C161.264633,223.680939 161.038132,224.665909 161.038269,225.650833 
	C161.044128,265.396271 161.070465,305.141693 161.094177,344.887115 
	C161.094177,347.208496 161.094177,349.529846 161.094177,351.851227 
	C160.809555,351.866760 160.524948,351.882294 160.240326,351.897827 
	C160.164932,350.451935 160.024078,349.006042 160.023636,347.560120 
	C160.009506,301.161499 160.008850,254.762863 160.007416,208.364227 
	C160.007401,207.532791 159.830399,206.639313 160.073944,205.883713 
	C160.493362,204.582489 161.179138,203.367096 161.753174,202.115692 
	C162.792679,203.187836 163.832199,204.259995 164.931000,205.673065 
z"/>
<path fill="#808080" opacity="1.000000" stroke="none" 
	d="
M161.285416,344.904114 
	C161.070465,305.141693 161.044128,265.396271 161.038269,225.650833 
	C161.038132,224.665909 161.264633,223.680939 161.661682,222.386856 
	C161.948975,262.719727 161.960022,303.361755 161.915833,344.464874 
	C161.860580,344.925995 161.476654,344.921112 161.285416,344.904114 
z"/>
<path fill="#393939" opacity="1.000000" stroke="none" 
	d="
M180.951599,222.577530 
	C180.131729,222.092850 179.185822,221.330948 178.196655,220.243729 
	C179.044128,220.712387 179.934845,221.506363 180.951599,222.577530 
z"/>
<path fill="#393939" opacity="1.000000" stroke="none" 
	d="
M172.944092,213.617874 
	C172.469788,213.413498 171.865326,212.969788 171.261414,212.203186 
	C171.779312,212.379684 172.296616,212.879120 172.944092,213.617874 
z"/>
<path fill="#393939" opacity="1.000000" stroke="none" 
	d="
M166.972626,207.524582 
	C166.766876,207.721008 166.528366,207.609070 166.339981,207.124146 
	C166.517502,207.045822 166.700760,207.200836 166.972626,207.524582 
z"/>
<path fill="#393939" opacity="1.000000" stroke="none" 
	d="
M176.883591,219.686035 
	C176.666077,219.900955 176.390259,219.775574 176.180847,219.208694 
	C176.344208,219.165344 176.536880,219.358185 176.883591,219.686035 
z"/>
<path fill="#393939" opacity="1.000000" stroke="none" 
	d="
M173.963684,215.685318 
	C173.730194,215.843231 173.498230,215.693298 173.372955,215.178818 
	C173.565948,215.132385 173.727798,215.320114 173.963684,215.685318 
z"/>
<path fill="#474747" opacity="1.000000" stroke="none" 
	d="
M394.050964,217.526489 
	C394.387024,218.519516 394.928436,219.974213 394.933502,221.430786 
	C394.987183,236.862213 394.967865,252.293945 394.922180,267.725494 
	C394.918793,268.866974 394.556458,270.007446 394.230865,271.531769 
	C394.069550,253.939789 394.038391,235.964401 394.050964,217.526489 
z"/>
<path fill="#474747" opacity="1.000000" stroke="none" 
	d="
M394.095245,321.552643 
	C394.213379,325.773804 394.299500,330.453064 394.260376,335.512085 
	C394.111176,331.264832 394.087189,326.637787 394.095245,321.552643 
z"/>
<path fill="#474747" opacity="1.000000" stroke="none" 
	d="
M394.095459,306.517517 
	C394.203186,308.135193 394.279083,310.176331 394.248230,312.548157 
	C394.115540,310.899536 394.089569,308.920227 394.095459,306.517517 
z"/>
<path fill="#474747" opacity="1.000000" stroke="none" 
	d="
M394.066406,274.488464 
	C394.179535,275.809753 394.257874,277.547302 394.219116,279.599792 
	C394.078583,278.244751 394.055084,276.574738 394.066406,274.488464 
z"/>
<path fill="#474747" opacity="1.000000" stroke="none" 
	d="
M394.068542,286.455261 
	C394.167297,287.174500 394.231873,288.277344 394.199341,289.648438 
	C394.079620,288.890747 394.057007,287.864838 394.068542,286.455261 
z"/>
<path fill="#474747" opacity="1.000000" stroke="none" 
	d="
M394.121948,315.292389 
	C394.091370,315.290253 394.075043,315.494995 394.111664,315.803925 
	C394.130768,315.905090 394.102356,315.496307 394.121948,315.292389 
z"/>
<path fill="#474747" opacity="1.000000" stroke="none" 
	d="
M261.565735,189.901581 
	C266.701141,189.587021 272.296906,189.071167 277.892365,189.074722 
	C287.305267,189.080719 296.717987,189.416702 306.511841,189.745605 
	C291.937286,189.896149 276.981598,189.914978 261.565735,189.901581 
z"/>
<path fill="#474747" opacity="1.000000" stroke="none" 
	d="
M198.552032,189.920151 
	C204.431732,189.796310 210.771896,189.714203 217.495102,189.751038 
	C211.589584,189.900604 205.301056,189.931244 198.552032,189.920151 
z"/>
<path fill="#474747" opacity="1.000000" stroke="none" 
	d="
M228.534180,189.942764 
	C233.767258,189.810974 239.461884,189.717026 245.536224,189.764221 
	C240.275864,189.930435 234.635788,189.955521 228.534180,189.942764 
z"/>
</svg>